<?xml version="1.0" encoding="UTF-8"?>
<svg version="1.1" xmlns="http://www.w3.org/2000/svg" width="34" height="34">
<path d="M0 0 C4.47870656 2.15937638 7.18198188 4.92952939 10 9 C11.84961854 14.54885563 11.79897602 19.9415324 9.375 25.3125 C6.73643834 30.02622937 3.0753212 32.30822627 -2 34 C-8.02937476 34.83245805 -12.30607804 34.04130405 -17.26953125 30.46484375 C-20.89917138 27.39234928 -22.74102035 24.9612313 -23.375 20.16015625 C-23.56631135 15.32356615 -23.43342189 11.89894911 -21.3125 7.5 C-14.62243999 0.26750269 -9.67873991 -0.91213256 0 0 Z " fill="#58B382" transform="translate(23,0)"/>
<path d="M0 0 C2.70502403 0.87730509 4.68400006 1.71668971 6.8125 3.625 C8.54997868 7.09995736 8.68518224 10.19256686 8 14 C6.4375 16.5625 6.4375 16.5625 4 18 C0.375 17.9375 0.375 17.9375 -3 17 C-5 14 -5 14 -4.875 10.75 C-3.87197871 6.45133732 -2.34643014 3.70887345 0 0 Z " fill="#F4FAF7" transform="translate(16,4)"/>
<path d="M0 0 C2.64590014 -0.02684679 5.29153096 -0.04676357 7.9375 -0.0625 C8.69224609 -0.07087891 9.44699219 -0.07925781 10.22460938 -0.08789062 C12.14994313 -0.09652441 14.07535581 -0.05224333 16 0 C17 1 17 1 17.0625 4.0625 C17.041875 5.031875 17.02125 6.00125 17 7 C12.5048914 9.32005605 7.96364462 9.6320746 3 9 C2.01 8.34 1.02 7.68 0 7 C-0.1875 3.375 -0.1875 3.375 0 0 Z " fill="#F8FCFA" transform="translate(9,25)"/>
<path d="M0 0 C2 3 2 3 2 7 C2.02320313 7.68320313 2.04640625 8.36640625 2.0703125 9.0703125 C2.1229057 11.04631417 2.06373141 13.02432621 2 15 C1.34 15.66 0.68 16.32 0 17 C-2.0625 15.4375 -2.0625 15.4375 -4 13 C-3.90725822 7.99194381 -2.43004272 4.33181529 0 0 Z " fill="#F7FBF9" transform="translate(15,5)"/>
<path d="M0 0 C2.69007598 2.69007598 3.02729236 5.36855815 4 9 C4.33 9.66 4.66 10.32 5 11 C4.01 11.495 4.01 11.495 3 12 C2.01 13.485 2.01 13.485 1 15 C0.77213542 12.98177083 0.54427083 10.96354167 0.31640625 8.9453125 C0.08707039 6.92595684 0.08707039 6.92595684 -1 5 C-0.34 5 0.32 5 1 5 C0.67 3.35 0.34 1.7 0 0 Z " fill="#A4D5BA" transform="translate(16,5)"/>
</svg>
